<svg id="Layer_1" data-name="Layer 1" xmlns="http://www.w3.org/2000/svg" viewBox="0 0 206.68 37.85">
  <title>logo-gi-white</title>
  <g id="Page-1">
    <g id="logo-gi-black">
      <path id="Fill-1" d="M89.6,3.83h2.55V0.15H89.6V3.83Zm0,26.49h2.55V8.59H89.6V30.31Z" transform="translate(0 -0.15)" fill="#fff"/>
      <path id="Fill-2" d="M98,30.31V8.59h2.55v3.3c2.25-2.34,3.91-3.72,7.35-3.72a5.45,5.45,0,0,1,5.35,4c2-2.3,4.12-4,7.31-4,3.87,0,5.82,2.09,5.82,5.89V30.31h-2.55V13.81c0-2.42-1.36-3.64-3.82-3.64-2,0-5.18,2-6.54,4.14v16h-2.55V13.81c0-2.42-1.36-3.64-3.82-3.64-2,0-5.18,2-6.54,4.14v16H98Z" transform="translate(0 -0.15)" fill="#fff"/>
      <path id="Fill-4" d="M144,18c-10.11,2.17-11.47,4.22-11.47,7,0,2.38,1.66,3.72,4,3.72A11.52,11.52,0,0,0,144,25.13V18Zm0.42,12.28-0.34-2.63c-2.63,2-4.63,3.05-8,3.05S130,28.64,130,25c0-5.93,4.93-7,14.15-9v-1.5c0-2.88-1.27-4.34-5.06-4.34-2.63,0-4.8,1.42-6.42,3.93l-1.7-1a8.62,8.62,0,0,1,8.2-4.93c5,0,7.39,2,7.39,6.81V26.34a23.83,23.83,0,0,0,.34,4h-2.46Z" transform="translate(0 -0.15)" fill="#fff"/>
      <path id="Fill-6" d="M159.25,21.16c3.57,0,5.74-1.67,5.74-5.43s-2.17-5.56-5.74-5.56-5.74,2.17-5.74,5.56c0,3.76,2.63,5.43,5.74,5.43h0Zm-6.8,11.24c0,2.13,2.12,3.59,6.71,3.59,5.52,0,7.9-1.46,7.9-3.72,0-1.8-1.45-3.55-8.07-3.55-5,0-6.54,1.8-6.54,3.68h0Zm17-22.39A5.08,5.08,0,0,0,166,11a6.51,6.51,0,0,1,1.57,4.55c0,5.35-3.87,7.6-8.54,7.6a10.41,10.41,0,0,1-3.57-.67c-1.4.5-2,1.29-2,2.09,0,1.25.85,1.88,6.84,1.88,6.63,0,9.39,2.09,9.39,5.64,0,3.18-2.46,5.89-10.07,5.89s-9.65-2.55-9.65-5.14c0-1.88.76-3.47,3.87-4.6V28.18c-1.61-.33-2.93-1-2.93-2.84a4.11,4.11,0,0,1,3.31-3.68A6.87,6.87,0,0,1,151,16c0-4.76,3.4-7.81,8.75-7.81a9,9,0,0,1,5.14,1.5,6.52,6.52,0,0,1,4.63-1.92V10Z" transform="translate(0 -0.15)" fill="#fff"/>
      <path id="Fill-9" d="M186.15,17.53c-0.51-4.47-2.51-7.31-6.37-7.35-4.5,0-6.42,4.47-6.46,7.35h12.83Zm-12.83,2c0,4.93,2.08,9.19,7.1,9.19,2.85,0,4.25-1,6.46-4.39L189,25.43c-2.38,3.84-4.55,5.31-8.75,5.31-5.78,0-9.43-3.64-9.43-11.28,0-6.73,3.48-11.28,9.09-11.28,6,0,8.84,4.64,8.84,11.36H173.32Z" transform="translate(0 -0.15)" fill="#fff"/>
      <path id="Fill-11" d="M192.36,25c2.08,2.92,4,3.68,6.84,3.68s4.93-1.8,4.93-4.14c0-6.31-13-2.76-13-10.49,0-4.09,3.27-5.93,7-5.93s6,1.42,7.61,3.93l-2,1.34c-1.49-2-3.1-3.26-5.74-3.26-2.46,0-4.38,1.17-4.38,3.8,0,5.31,13,2.17,13,10.61,0,3.89-3.65,6.14-7.65,6.14a9.89,9.89,0,0,1-8.54-4.39Z" transform="translate(0 -0.15)" fill="#fff"/>
      <path id="Fill-13" d="M9.14,12.38a3.5,3.5,0,1,0,0,7,3.49,3.49,0,0,0,0-7h0ZM4.63,32.2c0,1.62,1.38,2.36,5.61,2.36,3.25,0,4.35-1.62,4.35-2.36,0-1-1.5-2.44-6.38-2.44-2.76,0-3.57,1.54-3.57,2.44h0ZM19.34,12.05a6.69,6.69,0,0,0-3.25.49,6.19,6.19,0,0,1,1.14,3.74c0,4-2.68,6.82-8,6.82-2.19,0-3.94.08-3.94,1.3,0,3.41,13.89-1.22,13.89,7.23,0,3-3,6.26-9.79,6.26-5.69,0-9.43-1.71-9.43-5a3.73,3.73,0,0,1,3.82-3.9V28.87c-1-.61-3.13-1.14-3.13-3.41,0-2,2.36-3.57,3.29-3.86C2.23,20.17.85,18.55,0.85,16c0-3.7,2.84-7.35,8.33-7.35a8.47,8.47,0,0,1,5.2,1.87c1-1.3,2.56-1.95,5-1.87v3.41Z" transform="translate(0 -0.15)" fill="#fff"/>
      <path id="Fill-15" d="M33,17C33,14.08,31.41,12.38,29,12.38S25,14.08,24.91,17H33Zm-8.13,3.41c0.08,4.39,2,6.09,4.39,6.09S32.75,25.45,34,24l3.66,2.27c-1.95,3-4.79,4.31-8.86,4.31-5.48,0-8.94-4.26-8.94-11s3.45-11,9.18-11c5.53,0,8.61,4.63,8.61,9.71v2.07H24.91Z" transform="translate(0 -0.15)" fill="#fff"/>
      <path id="Fill-17" d="M68.53,33.58a9.41,9.41,0,0,0,2.11.16c1.75,0,2.72-.49,3.33-1.67a5.53,5.53,0,0,0,.81-2.48,10.49,10.49,0,0,0-.65-2.52L68.49,9h5.08l3.49,13h0.08L80.76,9h5L79.14,30.21c-2.24,6.05-4,7.68-8.17,7.68a15.76,15.76,0,0,1-2.44-.16V33.58Z" transform="translate(0 -0.15)" fill="#fff"/>
      <path id="Fill-19" d="M41.81,9.1V2.6h5.54V9.1h4.56v4.06H47.35V25.11c0,1.14.63,1.46,2,1.46a13.23,13.23,0,0,0,2.55-.41V30.3a39.55,39.55,0,0,1-4.38.33c-4.11,0-5.72-1.87-5.72-4.87V13.17H38.6V9.1h3.22Z" transform="translate(0 -0.15)" fill="#fff"/>
      <path id="Fill-21" d="M56.3,9.1V2.6h5.54V9.1H66.4v4.06H61.85V25.11c0,1.14.63,1.46,2,1.46a13.23,13.23,0,0,0,2.55-.41V30.3a39.55,39.55,0,0,1-4.38.33c-4.11,0-5.72-1.87-5.72-4.87V13.17H53.09V9.1H56.3Z" transform="translate(0 -0.15)" fill="#fff"/>
    </g>
  </g>
</svg>
